<?xml version="1.0" encoding="UTF-8" standalone="no"?>
<!-- Created with Inkscape (http://www.inkscape.org/) -->
<svg
   xmlns:svg="http://www.w3.org/2000/svg"
   xmlns="http://www.w3.org/2000/svg"
   version="1.0"
   width="112"
   height="163"
   viewBox="0 0 112 163"
   id="Layer_1"
   xml:space="preserve"
   style="overflow:visible"><defs
   id="defs6" />
<path
   d="M 57.309237,28.613758 C 69.414303,28.613758 77.210648,41.312289 77.373241,57.059444 L 37.245232,57.059444 C 37.407825,41.312289 45.204171,28.613758 57.309237,28.613758 z M 57.309237,12.890993 C 38.448422,12.890993 23.164658,32.849312 23.164658,57.465927 L 23.172788,58.083781 C 16.758485,60.433253 12.189615,66.571147 12.189615,73.774028 L 12.189615,112.98338 C 12.189615,130.43777 32.391824,144.59151 57.309237,144.59151 C 82.226649,144.59151 102.42886,130.43777 102.42886,112.98338 L 102.42886,73.774028 C 102.42886,66.571147 97.859991,60.433253 91.445681,58.083781 L 91.453811,57.465927 C 91.453811,32.849312 76.170051,12.890993 57.309237,12.890993 z M 44.50502,94.138832 C 44.50502,87.090412 50.236431,81.375261 57.309237,81.375261 C 64.382042,81.375261 70.113453,87.090412 70.113453,94.138832 C 70.113453,98.650792 67.763981,102.61806 64.219449,104.88624 L 64.219449,116.6336 L 50.399024,116.6336 L 50.399024,104.88624 C 46.854492,102.61806 44.50502,98.650792 44.50502,94.138832 z"
   id="path3"
   style="fill:#242424;fill-rule:evenodd;stroke:none;stroke-width:0.81296617;stroke-linecap:round;stroke-linejoin:round" />
</svg>